<svg xmlns="http://www.w3.org/2000/svg" xmlns:xlink="http://www.w3.org/1999/xlink" width="1280" zoomAndPan="magnify" viewBox="0 0 960 540.000001" height="720" preserveAspectRatio="xMidYMid meet" version="1.0"><defs><clipPath id="57ed075abd"><path d="M 0.886719 0 L 959.113281 0 L 959.113281 539 L 0.886719 539 Z M 0.886719 0 " clip-rule="nonzero"/></clipPath><clipPath id="819abc7c27"><path d="M 295 0 L 959.113281 0 L 959.113281 537 L 295 537 Z M 295 0 " clip-rule="nonzero"/></clipPath><clipPath id="658ec2c402"><path d="M 1111.90625 -754.339844 L 1389.824219 436.90625 L 452.285156 655.632812 L 174.367188 -535.609375 Z M 1111.90625 -754.339844 " clip-rule="nonzero"/></clipPath><clipPath id="4c49c239d6"><path d="M 1111.90625 -754.339844 L 1389.824219 436.90625 L 452.285156 655.632812 L 174.367188 -535.609375 Z M 1111.90625 -754.339844 " clip-rule="nonzero"/></clipPath><clipPath id="58d22027a7"><path d="M 1193.566406 197.9375 C 1191.210938 187.84375 1188.46875 178.371094 1185.222656 169.015625 C 1160.894531 101.246094 1162.695312 26.84375 1193.890625 -37.914062 C 1216.003906 -84.585938 1223.523438 -139.03125 1210.804688 -193.546875 C 1203.035156 -226.859375 1188.429688 -257.515625 1168.59375 -283.226562 C 1146.421875 -312.113281 1141.121094 -350.796875 1153.976562 -384.664062 C 1171.8125 -431.402344 1175.027344 -483.78125 1159.753906 -535.566406 C 1125.128906 -652.03125 1005.523438 -728.976562 887.410156 -701.421875 C 750.117188 -669.390625 711.667969 -567.28125 702.210938 -493.753906 C 696.605469 -449.335938 659.976562 -414.710938 615.15625 -410.640625 C 584.433594 -407.730469 551.925781 -403.34375 527.546875 -396.058594 C 369.660156 -349.640625 270.824219 -189.269531 300.195312 -26.871094 C 325.628906 114.089844 436.941406 214.789062 568.109375 236.347656 C 613.503906 243.851562 649.289062 278.613281 659.265625 323.65625 C 659.382812 324.160156 659.382812 324.160156 659.5 324.664062 C 694.003906 472.558594 841.539062 564.277344 989.316406 529.269531 C 1135.964844 493.992188 1228.339844 344.707031 1193.566406 197.9375 Z M 1193.566406 197.9375 " clip-rule="nonzero"/></clipPath></defs><g clip-path="url(#57ed075abd)"><path fill="#ffffff" d="M 0.886719 0 L 959.113281 0 L 959.113281 539 L 0.886719 539 Z M 0.886719 0 " fill-opacity="1" fill-rule="nonzero"/><path fill="#ffffff" d="M 0.886719 0 L 959.113281 0 L 959.113281 539 L 0.886719 539 Z M 0.886719 0 " fill-opacity="1" fill-rule="nonzero"/></g><g clip-path="url(#819abc7c27)"><g clip-path="url(#658ec2c402)"><g clip-path="url(#4c49c239d6)"><g clip-path="url(#58d22027a7)"><path fill="#fdbeb6" d="M 923.582031 -152.289062 L 151.566406 27.824219 L 306.351562 691.292969 L 1078.371094 511.179688 Z M 923.582031 -152.289062 " fill-opacity="1" fill-rule="nonzero"/></g></g></g></g></svg>